<?xml version="1.0" encoding="UTF-8"?>
<svg id="Layer_1" data-name="Layer 1" xmlns="http://www.w3.org/2000/svg" viewBox="0 0 500 500">
  <polygon points="130 130 130 10 10 130 130 130"/>
  <polygon points="250 130 250 10 130 10 250 130"/>
  <polygon points="250 130 370 10 250 10 250 130"/>
  <polygon points="370 10 370 130 490 130 370 10"/>
  <polygon points="10 250 130 250 10 130 10 250"/>
  <path d="M130,250c66.34,0,120-53.66,120-120-66.34,0-120,53.66-120,120Z"/>
  <path d="M250,130c0,66.34,53.66,120,120,120,0-66.34-53.66-120-120-120Z"/>
  <polygon points="490 250 490 130 370 250 490 250"/>
  <polygon points="10 370 130 250 10 250 10 370"/>
  <path d="M130,250c0,66.34,53.66,120,120,120,0-66.34-53.66-120-120-120Z"/>
  <path d="M250,370c66.34,0,120-53.66,120-120-66.34,0-120,53.66-120,120Z"/>
  <polygon points="490 370 490 250 370 250 490 370"/>
  <polygon points="130 490 130 370 10 370 130 490"/>
  <polygon points="250 490 250 370 130 490 250 490"/>
  <polygon points="250 490 370 490 250 370 250 490"/>
  <polygon points="370 490 490 370 370 370 370 490"/>
</svg>