<?xml version="1.0" encoding="UTF-8"?>
<svg id="Layer_1" xmlns="http://www.w3.org/2000/svg" version="1.1" viewBox="0 0 500 500">
  <!-- Generator: Adobe Illustrator 30.1.0, SVG Export Plug-In . SVG Version: 2.1.1 Build 136)  -->
  <defs>
    <style>
      .st0 {
        fill: #231f20;
      }
    </style>
  </defs>
  <path class="st0" d="M150.8,377.4h27.9v-27.9h28.6v-28.6h113v28.6h27.9v56.5h-56.5v27.9h-113v-27.9h-27.9v-28.6ZM178.8,180v-113h28.6v-28.6h27.9v28.6h28.6v113h-28.6v27.9h-56.5v-27.9ZM348.3,10.5v27.9h-84.4V10.5h-85.1v27.9h-27.9v28.6h-28.6v27.9h-27.9v85.1h27.9v27.9h28.6v28.6h-28.6v27.9h-27.9v28.6h27.9v27.9h28.6v28.6h-28.6v27.9h-27.9v85.1h27.9v27.9h169.5v-27.9h56.5v-28.6h28.6v-27.9h27.9v-85.1h-27.9v-27.9h-28.6v-28.6h-140.9v28.6h-28.6v-28.6h-27.9v-27.9h113v-28.6h56.5v-27.9h27.9v-85.1h-27.9v-27.9h84.4V10.5h-56.5Z"/>
</svg>