<?xml version="1.0" encoding="UTF-8"?>
<svg id="Layer_1" data-name="Layer 1" xmlns="http://www.w3.org/2000/svg" viewBox="0 0 500 500">
  <defs>
    <style>
      .cls-1 {
        fill: #231f20;
      }
    </style>
  </defs>
  <path class="cls-1" d="M395.87,164.6c-4.86-16.07-33.77-64.5-44.45-80.14-5.88-8.61-14.53-15.85-22.58-22.43-9.15-7.48-17.72-3.24-24.99-33.3-.67-2.78-2.6-7.99-8.47-13.63-10.46-10.04-22.85-9.51-36.61-3.82-4.9,2.02-7.16,5.86-10.03,9.95-13.39,19.11-8.6,29.82-20.07,39.36-9.72,8.08-22.21,9.06-33.36,14.09-8.43,3.8-15.81,9.97-24.11,14.45-14.89,8.03-38.56,30.31-51.68,56-4.49,12.44-18.91,44.08-21.47,55.63-8.05,36.34-10.12,59.9-7.82,96.95,1.38,22.27,7.9,42.99,15.14,63.96,6.34,18.38,16.43,34.23,28.97,49.19,11.29,13.47,26.55,22.53,38.8,35.31,12.31,12.85,22.17,27.27,35.58,39.06,4.42,3.88,11.15,2.92,15.92,4.62,18.08,6.42,33.75,1.71,48.9-8.52,7.2-4.86,14.31-8.69,21.05-14.48,9.32-8,20.62-13.27,29.38-22.58,0,0,5.37-11.47,11.34-16.09,9.77-7.55,18.15-17.31,26.78-26.25,13.75-14.22,21.7-30.9,30.04-48.33,2.81-5.87,2.94-11.93,5.16-17.81,6.9-18.24,11.77-35.14,12.97-54.82,2.1-34.53-4.41-83.37-14.39-116.37ZM394.86,261.93c-2.28,17.52-1.12,41.57-7.93,62.19,0,0-30.46,69.12-83.54,124.12l-18.53,9.74c-8.6,4.52-23.02-2.8-31.3-8.1-6.49-4.16-8.18-15.52-3.63-21.88,3.2-4.47,5.65-8.59,4.44-14.31-6.79-3.33-15.2-2.66-16.9-11.03,20.79-11.67,15.66-4.11,33.07-4.65.35-7.71-14.94-18.46-20.65-17.09-3.34.8-9.43-2.77-7.99-6.9,2.66-7.62,8.2-13.74,12.65-20,2.3-3.22,12.08.21,13.87.7,3.11.84,4.71-3.12,5.52-4.95,1.78-4.01-3.16-14.45-2.3-13.73-3.34-3.61-16.02-.8-22.92-4.97-2.36-1.42-6.61-2.21-8.16-3.84-1.86-3.45,1.6-7.22,3.87-9.5,10.18-10.25.72-17.64,3.38-33.6,1.58-9.49,2.85-19.16,5.27-28.42.93-3.58.76-5.47.38-9.06-.71-6.72,3.46-13.6,3.38-20.49-.09-7.68-6.2-34.18-5.92-28.49l-.53-10.84c-.29-5.96-3.87-11.54-4.87-17.93-1.03-6.53,3.48-12.42,3.4-18.59-.07-5.56-2.35-10.09-1.04-16.37.69-3.3-1.23-7.28.22-11.56,1.18-3.47,2.98-7.9,3.31-11.24.4-4.09.43-6.19,3.17-9.4,3.48-4.07-.12-10.82,1.64-15.35,1.87-4.81,5.37-8.71,5.02-14.46-.17-2.87,2.09-6.67,5.32-7.81,5.59-1.98,9.62-1.87,12.88-1.94,34.96-.78,46.53,10.71,70.01,42.76,13.32,18.17,31.7,38.92,40.71,103.61,1.83,13.13,6.31,40.8,4.67,53.37Z"/>
</svg>