<?xml version="1.0" encoding="UTF-8"?>
<svg id="Layer_1" data-name="Layer 1" xmlns="http://www.w3.org/2000/svg" viewBox="0 0 500 500">
  <defs>
    <style>
      .cls-1 {
        fill: #231f20;
      }
    </style>
  </defs>
  <path class="cls-1" d="M362.92,404.22l-75.41,37.37c11.74-26.28,24.07-49.34,37.28-75.08l-59.08-60.02,83.54,11.79,38.97-75.05,13.83,83.46,83,14.12-74.78,38.99,12.4,83.67-59.74-59.25Z"/>
  <polygon class="cls-1" points="391.07 157.11 330.01 178.7 365.17 124.61 325.24 73.3 388.11 90.13 424.25 36.53 427.79 101.05 490 119.23 429.49 142.73 431.23 207.07 391.07 157.11"/>
  <polygon class="cls-1" points="155.79 216.68 105.88 237.5 131.88 190.63 96.47 150.43 149.22 160.66 176.88 113.48 183.1 167.51 236.27 179.7 186.98 202.3 191.8 256.16 155.79 216.68"/>
  <path class="cls-1" d="M95.63,418.33l-30.18,43.62c-2.33-18.27-2.68-33.93-3.44-52.64l-52.02-15.38,50.45-19.78-1.83-54.47,34.36,42.81,50.81-18.15-29.39,45.04,32.78,42.66-51.56-13.71Z"/>
</svg>