<?xml version="1.0" encoding="UTF-8"?>
<svg id="Layer_1" data-name="Layer 1" xmlns="http://www.w3.org/2000/svg" viewBox="0 0 500 500">
  <defs>
    <style>
      .cls-1 {
        fill: #231f20;
      }
    </style>
  </defs>
  <path class="cls-1" d="M359.52,470.28c1.85.93,5.11,1.8,7.25,2.45,1.68.51,2.89,4.84,2.95,6.55l-22.57.52-3.32-6.83,6.24-1.78-38.1-91.76c-5.76.99-9.12-1.79-9.28-7.28l25.52.15c22.23.13,36.55,21.37,38.06,40.26.48,5.99-2,11.05-7.19,14.72l35.27,43.38c1.39,1.71,7.97-.65,8.18,8.11l-19.46.65c-1.5.05-3.45-2.38-3.54-3.6-.12-1.54,1.58-3.52,3.58-5.06l-34.52-42.48c-1.32-.65-4.74-.52-6.3-.07l17.23,42.05ZM349.87,420.17c12.77-.37,3.6-29.87-11.63-38.62-4.48-2.58-10.9-1.36-16.15-1.67l16.97,40.61,10.81-.31Z"/>
  <path class="cls-1" d="M136.34,96.02l5.86-1.77-26.69-69.69c-5.17-13.5-8.1-.16-10.7-12.68l22.78,2.03c16.5,1.47,30.19,13.44,32.83,30.1.71,4.49-1.44,8.44-4.9,11.73,16.33,5.14,33.63,32.42,22.79,45.04-1.7,1.98-6.17,3.27-9.49,3.01l-29.85-2.4-2.63-5.36ZM146.04,52.48c1.85.16,5.15-3.34,4.95-5.41-1.47-15.32-11.43-29.96-27.84-26.56l11.92,31.02,10.96.95ZM166.19,97.03c3.26.18,5.25-5.53,4.93-8.21-2.08-17.72-13.25-32-33.41-30.62l14.54,38.03,13.94.79Z"/>
  <path class="cls-1" d="M231.13,297.13l16.36,41.21,22.97.33c1.3.02,2.41-4.04,2.13-5.61l-2.25-12.65c2.19-.13,4.75,1.19,5.32,3l7.25,23.11-48.71-1.2c-1.31-1.71-2.44-4.38-3.08-6.49l6.03-1.31-13.28-33.86-1.8-4.53-19.05-47.69-6.27-1.34c-1.52-.32-2.62-3.75-2.82-6.37l47.81,2.25,11.29,23.06c.27.56-1.34,2.31-1.86,2.08s-2.12-1.15-2.46-1.69l-7.1-11.33c-1.19-1.9-4.81-5.31-6.91-5.38l-21.57-.73,14.98,37.74,17.89.61-3.07-11.6c1.42-.8,4.13.1,4.69,1.48l12.24,30.41c-1.04.42-4.23-.04-4.87-1.36l-5.8-11.83-18.06-.33Z"/>
  <path class="cls-1" d="M167.89,471.71c3.17.33,5.81.58,7.25.99,1.62.47,2.78,4.41,2.73,6.95,0,0-23.23,1.75-24.06,1.55,0,0-.83-5.8.57-6.74,3.55-2.37,6.86-3.79,6.86-3.79-.46-1.94-.52-4.38-.96-7.08l-10.7-65.49-5.25-30.52c3.09-.68,7.41-.81,10.19.91l56.86,103.32c5.34,0,9.2,1.72,8.62,7.96l-22.31-.1c-1.46,0-3.28-3.82-3.2-5.07.09-1.46,2.61-2.52,5.37-3.34l-15.89-29.92-21.51-.29,5.42,30.65ZM179.2,432.95l-25.74-47,7.75,46.87,17.99.13Z"/>
  <path class="cls-1" d="M321.11,228.22c-26.88-8.41-53.65-60.76-47.85-86.35,1.58-6.99,8.13-10.08,14.92-8.2,9.31,2.59,16.5,9.35,22.92,17,12.93,15.38,21.61,33.74,25.71,53.38,1.21,5.79.81,12.06-.99,17.47-2,6.01-8.46,8.65-14.71,6.7ZM325.89,219.44c3.55-4.12,2.74-10.99,1.77-15.76-3.9-19.11-12.13-36.61-23.95-52.27-3.94-5.22-14.48-14.53-19.56-9.81-7.41,6.88,2.07,32.36,5.81,41.05,5.44,12.64,11.89,24.36,22.07,34.01,3.17,3,10.06,7.19,13.86,2.77Z"/>
  <path class="cls-1" d="M294.99,473.07l10.47-1.88-36.94-92.09-15.58.08,1.7,18.3c-1.5.66-4.88-1.17-5.33-3.07l-6.8-28.72c3.84-1.45,5.56,1.48,6.45,5.42l43.62.7-.65-4.48c-.12-.85,3.8-.65,4.17.24l12.68,30.22c-6.37,4.65-8.25-13.34-15.42-18.3l-14.9-.24,37.25,91.72,10.84,1.78c1.58.26,2.98,4.59,3.43,7.01l-31.14.37-3.83-7.08Z"/>
  <path class="cls-1" d="M76.06,153.77c18.97,7.03,30.83,29.96,30.12,49.07-.14,3.79-2.46,8.26-5.5,10.76-8.23,6.79-23.88-2.06-31.05-11.19-17.76-22.62-31.38-68.36-2.47-87.38,1.42,1.14,3.21,3.49,3.89,5.01-10.86,11.73-12.17,21.08-10.13,37.4,4.92-3.79,9.39-5.8,15.14-3.67ZM94.07,208.48c9.01-8.52-7.69-49.21-23.42-48.24-3.19.2-6.41,4-7.78,6.8,2.98,8.86,6.08,17.81,10.52,26.07,3.69,6.86,14.73,20.99,20.67,15.37Z"/>
  <path class="cls-1" d="M267.97,450.57l9.06,29.44-48.74-.13c-1.44-2.12-2.62-4.86-3.17-6.69l6.45-2.13-35.95-94.37c-3-.22-6.06-.5-7.15-1.42-1.22-1.04-1.95-4-2.44-6.38l23.96.89c1.33,1.45,2.49,3.9,3.42,6.37l-7.23,1.66,36.02,93.77,19.93.47c2.72.06,4.49-3.57,4-6.04l-2.56-12.84c-.12-.58-.68-2.73-.14-2.71l4.51.12Z"/>
  <path class="cls-1" d="M182.88,213.13l7.14-31.39c3.3-14.49,3.61-36.97-11.49-44.66-2.07-1.05-5.29-1.31-6.95-.72-1.91.68-4.25,4.04-4.69,5.79l-1.56,6.25c-1.35-.69-3.7-1.99-4.82-2.85-1.05-.81-2.14-15.37,6.82-18.58,6.6-2.37,14.06-.04,19.54,4.59,13.76,11.62,18.37,29.73,13.25,46.65l-9.4,31.05,27.78,1.32c2.16-7.81-.82-5.34.1-12.83.1-.79,4.05.59,4.29,1.41l6.72,22.83-44.78-2.42c-.81-1.32-2.31-4.85-1.95-6.44Z"/>
  <path class="cls-1" d="M83.77,66.2l1.8,13.2c.39,2.86.82,9.15,3.26,10.36,4.28,1.88,7.87,2.04,7.36,7.33l-18.29-1.79-2.22-5.47,6.08-.89-12.2-80.32c2.99-.72,7.75-.61,9.25,2.01l47.81,83.27c4.61.3,8.67,2.17,7.54,6.94l-19.87-2c-1.43-.14-3.23-4.24-3.44-5.12l5.28-1.35-13.23-23.91-19.14-2.26ZM98.7,61.02l-21.89-38.44c1.39,13.38,3.67,24.83,5.93,37.51,5.98.72,10.47,1.15,15.96.94Z"/>
  <path class="cls-1" d="M226.88,103.27c8.84-2.8-1.12-24.16,3.95-21.56,3.77,1.93,7.86,15.65,8.35,18.85.95,6.24-7.49,9.66-12.58,9.33-31.37-1.99-58.43-59.2-52.93-82.92,1.54-6.66,7.28-10.76,14.59-9.25,24.08,4.98,20.88,11.8,28.53,27.15.23.46.07,2.14.05,2.6-.03.63-2.79-.55-3.22-1.25-4.17-6.72-10.84-16.37-18.71-20.63-3.81-2.07-9.47-3.21-11.85.75-3.46,5.75-1.5,12.55.19,18.61,4.73,16.91,12.83,32.35,23.66,46.25,4.1,5.26,13.3,14.18,19.98,12.06Z"/>
  <path class="cls-1" d="M128.06,209.16l16.24-.46-26.63-71.68-9.53,11.24c-2-.54-5.16-4.87-3.99-6.74l11.61-18.66c.91-1.46,3.23-3.19,4.94-2.46l33.41,89.12,14.45,2.26c1.29,1.56,2.53,4.45,3.24,6.9l-40.8-2.57c-1.22-1.84-2.09-4.07-2.93-6.95Z"/>
  <path class="cls-1" d="M254.89,226.68l-4.54-5.02c16.62-13.18,9.54-36.34-3-49.17-6.42-6.57-14.56-10.5-22.76-14.78l-3.33-26.85,23.46,1.14,4.18,10.73-20.88-.82c-.47.8-.86,3.59-.52,4.78.41,1.38,3.02,3.02,4.78,3.82,19.27,8.82,33.8,25.26,37.08,46.02,1.95,12.35-3.11,23.47-14.49,30.16Z"/>
  <path class="cls-1" d="M444.43,452.36s-1.32-.48-2.77,1.28c-1.69,2.05,2.04,13.73,2.63,18.12l-24.43-.69-18.08-43,16.97-.13,6.48,12.2c.63,1.18,2.76,1.86,4.51.97l-13.64-31.7c-.45-1.06-4.18-2.39-4.15-1.46.02.74.26,2.41.49,3.14l2.9,9.22-17.22-.11-16.58-39.68c8.29-.09,14.95-.35,22.38.73,5.75,2.02,12.45,21.9,17.29,17.85l-13.03-25.6-45.58-.89c.09,1.88.75,4.84,1.75,6.15.93,1.23,4.29,1.14,7.14,1.22l38.24,89.77c-.59,1.41-2.81,2.16-5.04,2.6l2.38,6.65,15.69-.39,28.82-.05c-.42-1.38-7.05-25.44-7.14-26.21Z"/>
</svg>