<?xml version="1.0" encoding="UTF-8"?>
<svg id="Layer_1" data-name="Layer 1" xmlns="http://www.w3.org/2000/svg" viewBox="0 0 500 500">
  <defs>
    <style>
      .cls-1 {
        fill: #231f20;
      }
    </style>
  </defs>
  <path class="cls-1" d="M148.7,124.11c-9.94,0-18,8.69-18,19.42s8.06,19.42,18,19.42,18-8.69,18-19.42-8.06-19.42-18-19.42ZM146.91,158.28v-3.59c6.25,0,11.33-5.54,11.33-12.36h3.59c0,8.8-6.69,15.95-14.92,15.95Z"/>
  <path class="cls-1" d="M386.68,137.18c-11.06,0-20.02,8.69-20.02,19.42s8.96,19.42,20.02,19.42,20.02-8.69,20.02-19.42-8.96-19.42-20.02-19.42ZM384.28,167.17v-3.59c7.06,0,12.8-5.54,12.8-12.36h3.59c0,8.8-7.35,15.95-16.39,15.95Z"/>
  <path class="cls-1" d="M92.31,301.58c14.17,1.03,29.27,1.19,42.91-2.3,13.88-3.56,57.49-26.17,79.75-44.93l2.84-9.22c-2.79,1.22-60.99,36.79-77.29,43.41-10.21,4.15-21,6.14-31.98,7.07-15.32,1.29-27.9.9-43.22,2.17-2.29.19-5.93,1.04-5.93,1.04,1.27-3.44,7.6-14.17,8.1-15.52l-3.08-2.57c-7.35,13.16-19.31,21.74-19.31,34.33,0,30.82,16.98,37.38,21.49,52.53,3.57,12,15.1,19.18,26.64,24.28,10.91,4.82,34.17,16.8,34.79,16.96l.18-3.12c-10.07-5.38-23.08-15.82-30.23-22.2-12.46-11.11-20.55-25.39-27.7-40.26-6.09-12.68-11.17-25.61-11.08-40.02"/>
  <path class="cls-1" d="M123.86,288.2c-35.76-4.69-62.07-13.21-70.73-33.29-8.61-19.97-11.06-42.87,18.91-71.99l2.88,7.36c-2.45,3.32-13.87,13.24-15.52,17.04-2.13,4.87-1.78,9.96.04,14.95,3.07,8.42,5.32,18.09,11.3,24.87,11.01,12.48,25.38,21.47,38.84,31.19,4.11,2.97,10.49,5.43,15.3,7.01l-1.02,2.87Z"/>
  <path class="cls-1" d="M445.51,238.29c-11.96,21.57-41.63,48.78-56.51,48.78s-28.71-24.58-38.45-40.6l2.07-4.99c8.12,7.13,27.29,22.18,37.88,24.53,14.57,3.22,42.44-16.03,54.01-31l.99,3.28Z"/>
  <path class="cls-1" d="M282.09,155.46c0-56.03-48.53-104.24-75.93-117.51v-8.57c2.57.94,5.16,1.83,7.71,2.83,16.71,6.62,29.48,18.2,38.87,33.11,20.47,32.81,31.38,44.32,41.33,54.27,0,14.92-4.68,30.12-6.81,35.29l-5.16.58Z"/>
  <path class="cls-1" d="M189.11,230.03l-6.21,5.52c-26.96,3.45-22.21,12.71-48.99,10.32-15.72-1.41-24.38-22.27-45.8-41.48l2.27-4.46c13.7,11.43,28.26,21.52,45.75,26.14,17.28,4.57,34.95,4.79,52.99,3.96"/>
  <path class="cls-1" d="M364.77,23.2l.7,3.29c-21.57,4.54-27.91,11.18-36.47,22.42-7.98,10.48-11.89,31.13-17.31,43.14l-3.79.59c2.8-30.95,7.61-49.4,25.22-66.93,8.84-8.8,20.29-1.72,31.66-2.5"/>
  <path class="cls-1" d="M428.17,40.87l-1.92.8c-8.41-3.95-16.03-5.66-19.96-6.07-10.24-1.07-19.35,2.56-28.25,7.02-6.81,3.41-12.99,8.12-18.68,13.27l-2.16-1.4c5.95-12.76,25.39-33.97,41.05-33.97,13.38,0,23.74,12.13,29.93,20.36"/>
  <path class="cls-1" d="M191.84,410.11l-3.39-6.2c6.43,3.48,49.27,26.64,81.97,30.72l-.02,10.3c-32.49-3.7-71.84-29.9-78.56-34.82"/>
  <path class="cls-1" d="M170.64,218.4c23.64-9.53,49.85-15.16,72.77-26.8l-1.34,3.34c-18.66,9.01-25.89,20.32-35.5,22.4-6.09,1.32-20.63-.62-35.32,2.43l-.62-1.37Z"/>
  <path class="cls-1" d="M234.2,462.28c21.35,3.14,42.73,5.35,64.93,2.88v3.33c-9.1,0-17.22,9.81-24.91,9.81l-4.03-6.93-1.46-.1-3.11,7.24h-2.46c-8.56-6.77-19.59-9.91-28.95-13.98v-2.25Z"/>
  <path class="cls-1" d="M439.59,221.97c-18.63,13.45-24.64,24.65-36.96,27.28-11.07,2.37-15.62-2.6-34.7-2.62l-1.28-2.64c12.89-1.75,26.03-2.15,38.47-5.99,12.44-3.84,24.18-11.11,34.25-20.57l.21,4.54Z"/>
  <path class="cls-1" d="M270.59,449.93l-.39,10.25c-22.28-1.51-27.58-10.24-48.37-15.25l-.82-3.2c16.32,3.52,32.62,6.7,49.58,8.2"/>
  <path class="cls-1" d="M420.89,125.52l2.19,1.72c3.07,6.26,2.44,18.18-4.44,25.06l-6.16,5.01c2.48-6.3,1.62-11.97-1.85-16.89-3.37-4.78-8.72-4.04-13.93-3.99l-1.43-1.52c4.49-2.14,25.61-9.4,25.61-9.4"/>
  <path class="cls-1" d="M82.5,103.59c4.17-2.74,12.56-9.4,24.36-12.02,9.34-2.07,23.01,1.4,26.32,2.11v.95c-6.53,3.51-15.23,6.72-23.09,8.5-10.76,2.44-16.91-1.17-27.17,1.32l-.42-.87Z"/>
  <path class="cls-1" d="M120.08,187.69c4.97-2.84,9.92-5.7,14.92-8.5,2.35-1.31,4.64-1.24,7.14.03,3.47,1.77,7.14,3.14,10.59,4.62-3.16,1.76-6.41,3.46-9.54,5.35-4.39,2.65-8.99,3.44-13.92,1.96-3.06-.92-6.11-1.87-9.17-2.8,0-.22,0-.44-.01-.66"/>
  <path class="cls-1" d="M306.68,441.79v4.84c-5.06,5.02-20.03,11.47-32.68,11.47l.65-6.7c6.98,0,24.96-3.73,32.03-9.62"/>
  <path class="cls-1" d="M214.12,27.31c-11.95-3.59-24.01-7.37-36.64-6.66-12.57.71-24.02,5.79-36.07,8.72v-2.56c13.74-3.85,27.95-10.84,38.38-10.84,8.76,0,20.88,3.74,34.7,9.42-.12.31-.25,1.62-.37,1.92"/>
  <path class="cls-1" d="M47.13,182.38l-.21,1.7c-4.86,3.37-4.7,9.49-8.91,12.7-4.59,3.49-9.62,6.17-15.56,8.31l-.31-1.86c2.09-3.25,7.71-9.64,9.29-11.92,3.03-4.37,12.34-9.04,15.7-8.93"/>
  <path class="cls-1" d="M74.1,122.77c-2.03.78-3.92,1.34-5.65,2.21-5.46,2.72-10.88,5.5-17.06,6.21-.81.09-1.63.21-2.83-.23,2.91-2.74,5.82-5.49,8.74-8.22.55-.51,1.19-.91,1.78-1.38,5.81-4.68,6.69-4.71,12.76-.3.79.57,1.56,1.18,2.27,1.72"/>
  <path class="cls-1" d="M119.3,170.54c2.89,2.58,5.12,4.57,7.47,6.67-9.11,7.85-18.22,2.86-19.91,1.08.48-.59,2.41-2.1,2.83-2.62.31.46,2.45,2.08,2.77,2.56-1.02-1.99-1.99-4.12-.2-4.88,3.1-1.32,4.64-1.74,7.04-2.81"/>
  <path class="cls-1" d="M47.12,143.47l.87,1.03c-2.88,3.56-5.99,7.08-8.92,10.66-3.3,4.02-6.46,8.06-10.55,11.14l-.92-.43c1.06-2.8,2.54-6.68,3.58-9.05,2.03-5.22,7.55-10.74,15.93-13.35"/>
  <path class="cls-1" d="M73.79,139.47c-4.06,4.77-15.03,10.49-20.6,7.93,2.66-2.77,5.24-5.55,7.94-8.21.49-.48,1.52-.7,2.25-.6,2.42.33,4.81.93,7.23,1.27.9.12,1.87-.21,3.19-.38"/>
  <path class="cls-1" d="M78.82,152.29c8.08-2.34,15.62-4.93,21.92,1.53-3.16.96-6.63,2.01-10.1,3.05-2.6.78-4.92.01-7.08-1.41-1.45-.95-2.88-1.93-4.73-3.17"/>
  <path class="cls-1" d="M335.3,289.65c-4.89-2.65-9.55-5.17-14.2-7.69.27-.22.32-3.03.07-4.27,5.62-1.69,11.64,3.07,14.14,11.95"/>
  <path class="cls-1" d="M325.7,288.86c5.17-1.2,11.27,4.18,11.96,10.53-4.08-1.49-8.12-2.96-11.62-4.24"/>
  <path class="cls-1" d="M152.27,193.93c1.48-1.32,2.68-2.38,4.4-3.9-1.28.34-1.87.5-2.61.7,1.54-3.88,6.54-5.57,10.99-3.92-3.24,6.33-6.71,8.64-12.77,7.13"/>
  <path class="cls-1" d="M93.9,142.73c-6.41-.52-11.86,3.65-17.77,1.01,5.07-5.87,11.75-6.48,17.77-1.01"/>
  <path class="cls-1" d="M66.77,134.35c3.1-1.97,5.71-3.77,8.46-5.3.78-.43,2.13-.42,2.98-.06,2.13.92,4.13,2.15,6.35,3.36-5.61,2.19-11.28,2.71-17.79,2"/>
  <path class="cls-1" d="M315.04,259.87c8.02,1.34,12.13,4.42,13.07,10.14-3.83-1.73-7.57-3.04-10.86-5.09l-2.21-5.05Z"/>
  <path class="cls-1" d="M326.79,299.2c6.18-.74,11.99,2.97,13.86,8.82-3.75-1.01-7.51-2.01-11.47-3.07l-2.38-5.75Z"/>
  <path class="cls-1" d="M342.19,320.14c-4.78-3.72-11.09-4.36-13.48-10.33,7.66.12,11.53,2.94,13.48,10.33"/>
  <path class="cls-1" d="M317.51,268.12c5.53,1.27,10.95,2.3,12.66,8.58-3.26-1.22-6.49-2.4-9.71-3.63,0,0-2.46-4.37-2.95-4.95"/>
  <path class="cls-1" d="M94.26,163.09c4.92-3.61,9.93-5.33,15.26-.23-5.13,1.07-10.19,1.4-15.26.23"/>
  <path class="cls-1" d="M332.39,319.01c8.95,1.64,9.46,2.03,10.28,8.08-3.99-2.17-8.81-2.69-10.28-8.08"/>
  <path class="cls-1" d="M305.32,194.11c-3.51-2.89-8.09-4.34-8.34-9.5,3.21-.17,7.94,4.63,8.34,9.5"/>
  <path class="cls-1" d="M305.62,225.7c5.24.55,6.53,2.04,7.99,7.08-4.17-.51-5.84-1.97-7.99-7.08"/>
  <path class="cls-1" d="M307.35,235.53c5.26.82,9.62,4.22,10.18,7.46-4.11-1.19-7.78-3.01-10.18-7.46"/>
  <path class="cls-1" d="M313.24,252.66c4.25.09,8.48.24,9.05,6.09-2.01-.83-6.25-2.25-8.17-3.04.06-.17-.88-3.04-.88-3.04"/>
  <path class="cls-1" d="M309.42,211.91c-2.24-2.26-4.48-4.52-7.18-7.23,4.77.23,6.87,2.24,7.77,6.63-.2.2-.39.4-.59.6"/>
  <path class="cls-1" d="M318.77,249.49c-2.81.14-6.25-2.52-7.31-5.65,3.09.36,6.12,2.7,7.31,5.65"/>
  <path class="cls-1" d="M340.3,331.2c-2.71-1.61-5.42-3.22-8.62-5.12,4.81-1.05,8.04,1.2,8.54,5.2,0,0,.08-.08.08-.08"/>
  <path class="cls-1" d="M305.37,201.87c-1.48-2.13-2.97-4.26-4.83-6.94,4.32.95,5.7,2.79,5.58,6.45-.25.16-.5.33-.75.49"/>
  <path class="cls-1" d="M303.31,214.63c3.84.08,6.62,2.72,7.49,6.72-2.72-2.44-5.11-4.58-7.49-6.72"/>
  <path class="cls-1" d="M279.66,380.57c17.25,0,42.05-9.16,49.05-16.16l6.59-10.68c-8.36,5.99-35.9,21-50.28,23.46,3.4-8.76,8.52-28.19,8.52-28.19,16.8,4.03,36.8,6.6,52.22-1.39,7.43-3.85,13.1-9.67,15.97-17.36,4.34-11.64,4.53-23.68.85-35.68-3.43-11.19-10.12-20.53-17.17-29.57-11.73-15.05-23.79-29.85-31.87-47.35-.24-.52-.68-.94-1.03-1.41.53,2.62,1.42,5.04,2.26,7.47,3.34,9.63,6.27,19.43,10.08,28.86,5.94,14.72,12.84,29.06,16.76,44.53,1.99,7.86,4.61,15.6,4.61,23.83,0,4.16-.71,8.15-3.95,11.19l.08-.08c-.56.6-1.05,1.28-1.69,1.78-6.96,5.45-14.96,8.31-23.63,9.61-8.81,1.31-17.27.64-24.68-4.73-10.47-7.59-21.27-14.81-30.17-24.35-5.87-6.3-10.84-8.34-19.21-7.96-4.03.18-10.78,6.11-10.78,6.11,2.13,3.6,4.55,7.15,9.52,7.68,6.61,1.11,11.47-5.19,19.02-1.67,9.7,8.15,13.81,24.66,25.83,27.9,0,0-4.39,16.7-6.24,24.17-.84,3.38-1.39,6.06-2.34,9.67l1.7.34Z"/>
  <path class="cls-1" d="M444.84,55.27c-3.31-4.05-30.53-10.13-41.43-7.17-17.68,4.81-27.8,13.42-41.44,25.59-11.38,10.15-30.51,35.1-45.28,35.1v41.38c12.44,0,44.53-29.06,58.5-45.86,10.73-12.89,30.91-35.1,44.82-41.19,10.56-4.62,21.33.16,32.01,6.09-.49-1.27-7.2-13.95-7.2-13.95ZM395.28,68.94c-9.11,0-21.89,15.62-33.16,29.4-11.58,14.15-21.58,26.37-29.72,26.37v-3.59c6.44,0,16.86-12.74,26.94-25.05,12.36-15.1,25.13-30.71,35.94-30.71v3.59Z"/>
  <path class="cls-1" d="M221.08,10l3.28,6.53c13.95,7.03,27.32,14.45,32.15,29.72,2.57,9.16,5.83,15.49,29.03,54.3l3.59.27c2.55-4.51,7.95-18.08,7.95-18.08-24.34-48.33-59.68-72.74-76-72.74ZM283.96,86.27c-.05-.16-4.95-15.73-11.12-21.63l2.48-2.6c6.84,6.54,11.86,22.48,12.07,23.16l-3.43,1.07Z"/>
  <path class="cls-1" d="M253.32,174.97c-1.94.31-6.52.32-7.77-.42-3.59-2.14-5.38-4-8.79-6.45-10.12-7.27-20.21-14.58-30.37-21.78-6.09-4.32-12.36-8.39-18.43-12.74-10.47-7.51-22.34-12.1-34.1-16.98-16.91-7.03-34.01-6.01-51.15-1.4-6.5,1.75-22.56-.66-23.67-1.17-3.95-1.84-7.81-3.88-11.71-5.84,2.77,4.19,5.81,8.14,9.11,11.86,8.89,9.99,18.05,19.73,26.78,29.84,5.46,6.32,11,12.34,18.65,16.04,9.92,4.81,19.72,9.85,29.71,14.51,13.71,6.39,28.31,8.09,43.26,7.69,2.26-.06,4.51,0,6.77,0,.01.08.02.17.04.25-3.97,1.15-8.49,3.77-12.56,4.95.16-.95,1.37-2.96,2.04-3.63l-2.5-.27c-2.47,1.57-4.55,3.63-7.02,5.2l-.74-1.45c1.08-.68,1.91-1.77,1.86-2.88,0,0-4.05-.79-5.14-.89-.22,3.26-.96,5.64-6.27,4.85,2.71-1.2,3.21-4.8,3.21-4.8l-3.71-.75-8.47,6.97c-7.41-.16-14.9.08-22.21-.94-15.6-2.16-29.74-8.36-42.24-17.89-6.37-4.85-12.27-10.36-18.16-15.8-6.68-6.17-14.04-9.7-23.43-8.06-5.41.95-9.95,3.47-14,6.86-7.73,6.47-15.26,13.17-23.14,20,5.04-1.74,9.91-3.22,14.62-5.1,8.01-3.21,16.19-5,24.75-3.09,15.16,3.39,29.15,9.54,42.25,17.92,13.48,8.63,28.37,13.42,44.27,14.73,5.16.43,10.44-.78,15.61-.42,9.47.65,18.45-1.33,27.35-4.01,6.32-1.9,12.52-4.23,18.82-6.17,15.09-4.65,30.22-9.19,45.33-13.8.67-.2,2.5-.93,3.48-1.42l-2.33-3.5ZM183.2,159.66c-3.73,11.52-14.66,15.12-25.91,9.22-2.57-1.35-4.93-3.13-7.37-4.72-3.22-2.1-38.33-20.69-48.92-47.04,4.9.37,9.51.75,14.12,1.07,10.46.74,20.91,1.77,31.38,2.11,12.46.4,22.81,5.23,30.94,14.33,6.33,7.08,8.71,15.89,5.75,25.03ZM185.83,175.94v-3.59c20.59,0,33.64-3.56,33.77-3.6l.96,3.46c-.55.15-13.61,3.73-34.73,3.73Z"/>
  <path class="cls-1" d="M445.48,245.65c-4.66,6.54-8.95,13.38-14.06,19.55-7.18,8.69-14.74,17.09-22.54,25.23-9.09,9.47-66.2,59.9-74.27,74.86-4.39,7.53-34.55,46.5-55.59,46.5v-27.96s-8.61-8.17-23.14-13.7c-13.39-5.67-26.96-10.91-40.49-16.25-24.65-9.74-49.25-19.61-74-29.07-14.36-5.48-42.12-15.81-44.5-16.59l-7.39.51c42.93,41.63,125.45,95.8,181.79,95.8l-.31,11.72c-27.06,0-69.51-21.01-98.36-32.79-.17.32-.34,4.16-.52,4.48,44.74,20.43,62.67,38.66,101.98,38.66,12.39,0,41.53-14.74,52.46-25.67,12.41-12.41,10.4-23.32,30.41-43.33,20.14-21.81,25.92-19.33,45.74-39.15,18.35-18.35,36.56-49.26,44.93-72.2l-2.16-.58ZM270.84,393.55c-24.6,0-44.47-10.95-65.5-22.55-11.6-6.4-23.6-13.01-36.63-17.77l1.23-3.38c13.29,4.85,25.41,11.53,37.13,18,20.61,11.36,40.08,22.1,63.76,22.1v3.59Z"/>
  <path class="cls-1" d="M475.72,247.92c.88-9.57-4.14-32.66-4.09-42.23.08-15.08,1.64-39.46.38-54.47-2.07-24.62,2.58-50.41-13.69-80.37l-3.42,4.21c1.04,1.32,3.22,3.43,3.97,6.09-12.8-2.65-30.57.31-39.71,3.45-12.42,4.27-21.44,12.49-28.8,23.11-4.74,6.85-9.74,13.62-15.35,19.76-5.98,6.54-13.88,10.77-21.85,14.45-12.89,5.94-26.97,25.5-42.14,54.57,8.25.06,14.77,5.12,18.61,7.71,2.88,1.95,5.15,4.78,7.95,6.88,12.18,9.14,25.25,16.36,40.75,18.03,12.47,1.34,24.52.22,35.85-5.71,11.62-6.08,19.3-16.04,25.33-27.12,4.1-7.52,7.12-14.6,10.35-22.6l-1.15-1.62c-3.39,6.51-16.95,24.59-28.82,32.26-6.18,4-12.57,7.58-20.04,8-15.59.88-50.89-.27-62.2-10.16l5.17-5.17c6.24,3.62,41.41,11.86,49.18,11.86,11.11,0,30.56-9.8,47.43-29.13l-1.45-2.23c-16.84,12.39-23.37,16.52-39.13,16.52-9.21-.04-18.53-.97-27.59-2.65-15.73-2.91-39.5-3.38-54.85.06,4.73-5.28,15.04-16.68,21.92-24.17,11.69-12.71,24.66-23.55,40.76-30.58,12.56-5.49,44.44-14.06,47.26-14.99,8.51-2.82,16.84-6.04,24.03-11.64l3.3-.48c-13.05,24.88-28.86,45.99-54.1,58.99.27-.73-12.91,6.85-37.8,7.48-13.03.35-25.34,1.97-36.67,8.64l-3.63,3.7c12.35-3.44,50-4.97,55.24-6.06,16.7-3.45,32.6-9.24,47.63-17.42,6.5-3.54,13.05-8.39,19.7-11.63l1.05,1.38c-7.58,7.14-16.49,12.16-25.47,17.06-9.06,4.95-23.09,9.09-32.92,11.7l1.81,1.31c6.75-1.55,16.53-2.48,20.57-2.12,10.95.97,16.52-2.18,25.38-8.59,4.93-3.56,9.49-12.98,17.78-19.51l1.4,2.29c-3.84,2.63-2.81,5.58-5.03,7.96l1.42,3.62c2.53-1.72,2.46-6.02,4.12-8.24,2.03-2.73,4.14-2.8,5.36-5.96l1.61,2.4c-.77,1.76-3.43,2.55-4.74,4.97-1.59,2.94-1.92,7.49-3.74,8.72,2.6,2.74,1.01,5.12,1.93,13.17.72,6.33.15,21.56-.16,25.48,0,0,5.03,10.36,5.33,25.56-.22,6.85-3.32,43.37-6.46,54.46-4.39,15.52-11.18,29.73-22.87,41.21-13.37,13.13-26.59,26.41-40.07,39.42-15.49,14.96-28.97,31.49-40.04,49.98-4.92,8.21-7.4,17.36-10.39,26.31-4.14,12.37-8.07,24.82-12.09,37.23-.63,1.94-1.29,5.07-1.91,6.93,0,0,11.76,0,27.06-36.2,18.79-44.47,31.71-51.03,52.08-73.23,17.37-18.93,44.22-46.32,54.93-68.77,10.59-22.17,14.61-51.75,15.73-63.89ZM367.24,216.53c10.03,3.44,29.46,4.13,36.36.14l1.8,3.11c-3.97,2.3-10.57,3.22-17.48,3.22-8.05,0-16.54-1.26-21.84-3.08l1.17-3.4ZM420.41,100.4c-6.75,5.53-13.29,14.05-19.94,19.71l-2.57-2.15c13.93-15.92,28.48-31.01,51.87-33.5l.29,3.1c-9.97,1.18-16.21,3.4-29.64,12.83Z"/>
  <path class="cls-1" d="M300.45,178.33c-.32-6.65,1.21-16.15,2.69-25.34,1.41-8.74,2.87-17.79,2.72-24.23l3.59-.08c.16,6.77-1.33,15.98-2.76,24.88-1.45,9-2.95,18.31-2.65,24.59l-3.59.17Z"/>
  <path class="cls-1" d="M325.9,324.3c-7.82-20.33-13.79-41.25-19.61-62.21-4.12-14.83-7.52-29.9-12.45-44.45-7.43-21.92-14.09-44.26-24.05-65.16-15.17-31.83-15.38-75.24-46.15-82.05-28.41-6.29-56.96-20.46-85.04-20.46-16.56,0-33.46,12.82-46.52,20.25-9.9,5.63-19.17,12.08-27.01,20.23-6.5,6.75-23.45,32.74-24.89,35.16l1.1.32c7.04-7.13,11.88-15.16,19.23-21.95,4.94-4.57,10.29-8.96,16.12-12.23,9.89-5.56,21.01-6.98,32.13-5.64,13.75,1.66,27.41,4.13,41.09,6.4,11.47,1.9,22.03,6.65,32.87,10.6,17.2,6.25,31.97,16.28,44.26,29.51,8.27,8.9,15.12,19.15,22.34,29,3.8,5.18,10.06,10.39,13.5,15.84l-.24,6.95c-1.74,2.14-22.67,24.55-32.44,46.79-7.83,17.81-25.54,61.62-4.64,73.84,2.63,1.62,3.95,3.01,5.54,5.7l2.82-1.77c0-9.9,6.65-16.02,12.51-16.02,8.27,0,17.14,2.22,31.88,22.06,3.99,5.37,6.75,9.07,10.77,14.4,2.86,3.79,14.47,9.09,19.23,7.87,5.66-1.45,17.86-3.37,20.88-3.61,0,.06-2.2-6.61-3.25-9.34ZM139.57,72.56c-4.87-1.52-11.23.39-17.97,2.41-5.67,1.7-11.5,3.45-17.2,3.45-1.32,0-2.64-.09-3.94-.31l.58-3.55c6.1.99,12.92-1.06,19.53-3.04,7.28-2.19,14.16-4.25,20.08-2.4l-1.07,3.43ZM241.86,121.27c-11.57-19.62-29.97-25.88-47.76-31.94-8.22-2.8-16.72-5.69-24.32-9.86l1.73-3.15c7.32,4.02,15.3,6.73,23.75,9.61,18.41,6.27,37.45,12.75,49.7,33.52l-3.1,1.83ZM270.34,189.93c.02.11,2.28,11.53,6.61,21.07l-3.27,1.49c-4.52-9.93-6.78-21.39-6.87-21.87l3.53-.69ZM310.84,325.4c-8.16,0-16.17-10.14-23.97-19.99-7.15-9.04-14.54-18.38-20.81-18.38v-3.5c7.96,0,15.54,9.57,23.55,19.71,8.27,10.45,16.81,21.26,23.9,18.07l1.44,3.19c-1.38.62-2.75.91-4.12.91Z"/>
  <path class="cls-1" d="M208.49,309.09c-9.15-2.45-14.39-15.46-12.1-23.99l3.47.93c-1.64,6.13,2.06,17.58,9.56,19.59l-.93,3.47Z"/>
  <path class="cls-1" d="M238.52,346.16c-8.5-.68-24.01-8.14-40.42-16.04-15.65-7.53-31.84-15.32-41.19-16.71l.53-3.56c9.89,1.47,26.33,9.38,42.22,17.02,15.39,7.41,31.31,15.07,39.15,15.7l-.29,3.58Z"/>
  <path class="cls-1" d="M352.08,395.1l-3.07-1.87c11.21-18.38,27.66-34.88,38.11-41.68l1.96,3.01c-10.11,6.57-26.07,22.61-37,40.53Z"/>
  <path class="cls-1" d="M199.32,457.29c-15.12-15.06-32.44-31.32-46.19-37.67l1.51-3.26c14.27,6.59,31.88,23.1,47.22,38.39l-2.54,2.55Z"/>
  <path class="cls-1" d="M120.68,363.68c-16.72-9.01-31.56-24.89-38.69-32.52-.63-.67-1.19-1.27-1.68-1.79l2.61-2.47c.5.53,1.06,1.13,1.7,1.81,7,7.49,21.56,23.08,37.77,31.81l-1.71,3.16Z"/>
</svg>