<?xml version="1.0" encoding="UTF-8"?>
<svg id="Layer_1" data-name="Layer 1" xmlns="http://www.w3.org/2000/svg" viewBox="0 0 500 500">
  <defs>
    <style>
      .cls-1 {
        fill: #231f20;
      }
    </style>
  </defs>
  <path class="cls-1" d="M396.65,454.71c-2.55-8.82-40.7-5.75-37.16-6.28l-.18-4.91c-8.63-11.19-43.62,11.88-43.95-10.93-.31-21.91-25.82-22.29-28.93-27.37-5.95-9.69.63-22.63-.87-32.56-4.84-32.18,8.77,5.53-1.46-39.92,1.81.53,6.42,2.7,6.98-3.14l.55-5.77c-.85.34,0,0,0,0,1.25-14.51-9.21-14.26-5.15-25.54,3.08-1.16,4.11-16.54-.19-28.64v-.03c-.13-12.65-.21-30.27-4.87-46.62-4.65-16.35-3.4-39.84,0-57.95,3.4-18.12,6.8-74.44-7.68-84.07-4.83-7.15-13.6-12.75-22.99-7.8-4.68-.63-5.44-4.47.38-4.8,6.73-2.12-1.49-7.58-1.03-12.2.87-8.79,7.73-22.45.06-37.75-5.46-10.89-18.71-9.26-28.63-3.3-8.21,4.93-8.91,11.46-7.71,20.18,1.71,12.48-7.24,24.67,10.99,30.47-1.23,4.75-5.87,7.28-6.34,11.84-7.69.93-21.24,1.18-28.96,11.04-5.95,7.6-5.69,14.88-7.92,22.4-11.29,38.21-10.41,9.37-14.64,28.49-5.73,25.9,10.92,12.83-.64,36.03-6.24,12.51-11.74,24.11-15.6,35.58-1.94,5.76-2.19,11.11-5.79,17.66l-18.08,32.94c-10.02,18.25-9.85,31.8-5.47,38.72,4.38,6.92,9.38,4.91,20.32,6.19l16.82,4.15c-1.59,1.83-3.54,17.58-3.82,24.86-.65,17.1,3.53,31.03,4.53,33.4,5.98,14.31,3.3,31.91,3.54,33.44-9.55,32.46,1.95,7.27-15.29,33.55l7.73,3.81c-1.82,11.83,14.36,15.39,17.75,21.67,10.1,18.68,45.69,12.61,50.91,13.78l14.37,3.24c11.69,2.63,21.59,4.23,32.73,5.14,4.02.95,34.23,3.2,34.23,3.2-.66,2.99,7.81,3.33,9.14,3.45,6.64.64,18.49-2.36,17.07-3.98,12.02,2.51,23.38-.23,36.9-1.39,3.77-.32,7.52.72,11.28,1.01,3.78.29,4.77-1.05,4.87-4.62.2-1.96,15.21-16.32,12.22-26.67ZM199.69,426.8c-.88-1.5-.16-2.78,3.03-6.54.95-4.27,3.57-56.63,12.58-56.32,8.81.3,5.95-2.53,10.83-2.52,5.62.01,6,8.64,9.85,14.04,3.58,5.03,11.86,5.3,13.73,10.15,7.05,18.3-10.68,5.92,14.09,37.12l12.96,16.33c3.66,4.61,6.55,8.52,6.99,13.14-2.72.25-5.39,1.38-7.79.19-31.06-2.33-69.3-13.7-76.26-25.58Z"/>
</svg>