<?xml version="1.0" encoding="UTF-8"?>
<svg id="Layer_1" data-name="Layer 1" xmlns="http://www.w3.org/2000/svg" xmlns:xlink="http://www.w3.org/1999/xlink" viewBox="0 0 500 500">
  <defs>
    <style>
      .cls-1 {
        fill: url(#linear-gradient);
      }
    </style>
    <linearGradient id="linear-gradient" x1="89.35" y1="250" x2="410.65" y2="250" gradientUnits="userSpaceOnUse">
      <stop offset="0" stop-color="#231f20"/>
      <stop offset="1" stop-color="#000"/>
    </linearGradient>
  </defs>
  <path class="cls-1" d="M171.21,89.13c8.29-4.47,15.67-10.64,24.11-14.45,11.15-5.03,23.65-6.01,33.36-14.09,11.47-9.54,6.68-20.25,20.07-39.36,2.87-4.09,5.13-7.93,10.03-9.95,13.76-5.69,26.15-6.22,36.61,3.82,5.87,5.64,7.8,10.85,8.47,13.63,7.27,30.06,15.84,25.82,24.99,33.3,8.05,6.58,16.7,13.82,22.58,22.43,10.68,15.64,39.59,64.07,44.45,80.14,9.97,33,16.49,81.84,14.39,116.37-1.2,19.68-6.07,36.58-12.97,54.82-2.22,5.87-2.35,11.93-5.16,17.81-8.34,17.43-16.3,34.11-30.04,48.33-8.64,8.93-17.02,18.69-26.78,26.25-5.97,4.62-11.34,16.09-11.34,16.09-8.76,9.31-20.07,14.58-29.38,22.58-6.73,5.79-13.85,9.62-21.05,14.48-15.14,10.23-30.81,14.94-48.9,8.52-4.77-1.7-11.5-.73-15.92-4.62-13.41-11.78-23.26-26.21-35.58-39.06-12.25-12.78-27.51-21.83-38.8-35.31-12.54-14.96-22.62-30.82-28.97-49.19-7.24-20.98-13.76-41.69-15.14-63.96-2.3-37.05-.23-60.61,7.82-96.95,2.56-11.55,16.98-43.19,21.47-55.63,13.13-25.69,36.8-47.97,51.68-56Z"/>
</svg>