<?xml version="1.0" encoding="UTF-8"?>
<svg id="Layer_1" data-name="Layer 1" xmlns="http://www.w3.org/2000/svg" viewBox="0 0 500 500">
  <path d="M186.57,403.41c21.17,0,38.36-2.33,51.57-6.99,25.06-8.93,37.59-25.54,37.59-49.82,0-14.18-6.22-25.15-18.65-32.93-12.43-7.58-31.96-14.28-58.57-20.1l-45.45-10.2c-44.68-10.1-75.57-21.07-92.66-32.93-28.95-19.81-43.41-50.79-43.41-92.95,0-38.46,13.99-70.41,41.96-95.86,27.97-25.45,69.06-38.17,123.25-38.17,45.26,0,83.86,12,115.82,35.98,31.95,23.99,48.7,58.81,50.26,104.46h-86.25c-1.56-25.83-12.82-44.19-33.8-55.07-13.99-7.18-31.37-10.78-52.16-10.78-23.12,0-41.57,4.66-55.36,13.99-13.79,9.32-20.69,22.34-20.69,39.04,0,15.35,6.8,26.81,20.4,34.38,8.74,5.05,27.39,10.98,55.94,17.77l74.01,17.77c32.44,7.77,56.91,18.16,73.43,31.18,25.64,20.2,38.46,49.44,38.46,87.7s-15.01,71.82-45.02,97.75c-30.01,25.93-72.41,38.9-127.18,38.9s-99.94-12.77-131.99-38.32c-32.05-25.54-48.08-60.65-48.08-105.33h85.66c2.72,19.62,8.06,34.29,16.03,44,14.57,17.68,39.53,26.51,74.88,26.51Z"/>
  <path d="M400.84,35.99h89.16v429.48h-89.16V35.99Z"/>
</svg>