<?xml version="1.0" encoding="UTF-8"?>
<svg id="Layer_1" data-name="Layer 1" xmlns="http://www.w3.org/2000/svg" viewBox="0 0 500 500">
  <path d="M186.09,389.69c2.88,2.51-2.61,5.15.54,5.53,4.75.58,5.09-1.31,9.67,4.04l1.61,1.88,1.21-3.33c.23-.62,2.72-.65,3.05-.11l2.59,4.36c4.78,8.03,5.3,4.94,10.03,11.65.41.58.16,2.76-.31,3.32s-2.21,1.23-2.93,1.08l-4.07-.85.18,1.77.25,2.55-4.61-.22c-.67-.03-1.58-2.28-1.99-3.02-2.19-3.92-4.57,2.01-13.76-3.31l-11.29-6.55c-2.42-1.4-4.92-3.14-7.04-4.88l-9.45-7.81c-1.73-1.43-5.75-2.24-8.11-2.97-6.18-1.93-6.14-3.5-13.78-8.54-3.42-2.26,3.06-3.86,6.46-8.95,1.93-2.89,3.37-5.79,4.76-8.77l3.87-8.29c.63-1.35.8-3.95.27-5.33l-4.39-11.37c-2.35-6.07-4.25-11.18-7.98-16.81l-5.2-7.83c-.54-.81-2.64-2.25-3.58-2.23l-5.18.12.68,3.15c.12.57-1.79,1.34-2.3,1.01l-2.93-1.89c-.29-.18-1.47.75-1.49,1.1l-.37,5.69c-.56,8.49-2.91,12.85-.61,18.15l2.26,5.21c3.5,8.08,1.03,5.41,4.72,13.94.35.81,1.3,3.17,1.02,4.03l-1.98,6.04-14.22-5.44c-.7-.27-3.04-.19-3.64.19l-2.71,1.71-4.88-10.17-5.38-12.39c-1.94-4.47-2.21-13.08,2.18-16.21-2.29-2.68-3.87-4.99-5.63-8.31l5.56-1.92c1.65-.57-1.36.48-2.95-5.24-.1-.34,3.05-1.27,2.61-1.04.07.11-.53-.84-.69-1.06-.42-.58,1.84-2.4,2.24-1.81l1.49,2.16c.17.24.84-.91.89-1.22l.69-4.53c.23-1.51,1.25-4.53,2.04-5.78l6.08-9.62c1.96-3.1,5.69-5.61,9.02-7.2l-1.64-2.7c-.42-.69,2.87-1.9,3.67-1.5l9.68,4.88-2.55,2.76,4.63,4.2c.77.7,1.39,3.47,1.72,4.7l2.06,7.7c.55,2.07,3.11-1.77,6.82,1.27l3.54,2.9c.89.73,4.67-1.2,4.6-2.33l-.27-4.41,7.56-.36-.49,5.32c7.84.97,4.82,1.83,12.3,3.68l7.21,1.78c5.64,1.39,6.17,4.21,11.53,5.77,4.31,1.26,8.31,2.27,12.39,4.05,9.48,4.12,10.73,8.76,19.29,10.6,12.7,2.73,12.24,4.6,21.4,6.24l15.43,2.76c10.97,1.96,11.43,4.68,23.03,8.15l11.08,3.31c5.73,1.71,12.24,3.01,18.21,1.98l10.06-1.73c5.94-1.02,5.57-11.34,4.78-13.61l-2.89-8.29-3.09-8.31,3.51-.52c.31-.05-.34-1.35-.54-1.63l-1.09-1.53c-.23-.32,1.94-.8,2.24-.56l5.43,4.35c3.72,2.98,6.52,7.12,8.94,11.25,6.04,10.31,7.18,5.92,11.42,16.48l3.34,8.33c1.68,4.19,5.05,13.29-1.82,15.73l-7.46,2.64c-3.08,1.09-6.42,3.81-8.47,6.35l-3.09,3.82c-.8.99-4.32.86-5.16-.13-6.11-7.13-9.01-13.81-18.51-16.14l-18.37-4.51c-23.07-5.66-17.77-7.35-45.61-10.93l-24.97-3.21-9.05-1.17c-.87-.11-2.94.08-3.79.23l-5.99,1.02c-2.42.41-5.01,1.24-7.46,1.98l-10.41,3.15c-2.12.64-5.69.17-8.08-.38l-6.04-1.39c-.37-.09-1.71.49-1.94.81s-.45,1.64-.3,1.97l1.72,3.72,2.61,5.66c3.11,6.74,5.4,3.39,10.04,13.64,1.41,3.11,3.56,6.06,6.39,8.52Z"/>
  <path d="M338.39,456.29c-2.28,2.33-5.66,4.18-8.43,5.8l-8.3,4.84-7.55,4.43-16.34,9.02c-2.54,1.4-6.24,2.18-9.26,2.66l-11.42,1.81c-12.08,1.92-13.04-.83-22.04,2.78l-5.03,2.02c-5.33,2.14-9.22-6.36-10.76-6.12-8.85,1.4-11.62,3.34-20.47.28-11.13-3.85-14.41-1.15-23.49-5.53l-9.81-4.73-8.99-4.09c-9.06-4.13-4.12-7.45-12.47-12.41l-7.69-4.56-17.05-10.2-7.66-4.28-20.85-14.18c-5.89-4.01-10.99-8.44-16.67-13.06-8.72-7.08-2.9-13.84-8.71-22.66l-8.07-12.26c-4.29-6.52-.28-11.7.04-20.96l.22-6.53c.15-4.38,3.71,6.21,4.98,8.61l4.63,8.72c4.91,9.26,16.14,23.57,23.48,30.82l7.69,7.6,9.07,8.4,5.67,5.2,10.27,9.6c1.36,1.27,4.72,2.26,6.69,2.66,8.38,1.69,4.13,3.72,11.51,6.57,2.83,1.1,5.32,2.26,7.76,3.73l6.23,3.76c2.21,1.33,4.68,2.76,6.64,4.23l10.1,7.54c4.06,3.03,18.75,9.47,24.59,10.32l17.1,2.49c5.11.74,10.51.82,15.66.31l13.21-1.3,8.77-.75c2.35-.2,4.93-.29,7.14-.7l9.17-1.72c3.12-.58,6.25-1.52,9.29-2.35l11.35-3.08c5.32-1.45,10.41-3.19,15.49-5.26l11.05-4.51,9.1-3.71c.43-.17,2.57.29,2.46.73s-.49,2.01-.82,2.34l-7.48,7.67Z"/>
  <path d="M241.42,304.48l-15.62-.74c-3.06-.14-6.05-.24-9.17-.19l-19.74.28c-1.58.02-4.88-1.87-5.57-3.23-3.65-7.26-2.09-13.51,1.74-20.02l4.89-8.3,2.22-3.79c.91-1.55,5.05-3.1,6.74-2.51l6.78,2.37c4.4,1.54,12.63,4.05,15.95-.3l2.68-3.51c1-1.32,4.86-2.5,6.42-1.83l6.33,2.72c4.53,1.95,6.97,6.87,10.97,9.44l7.01,4.5c6.92,4.44,19.6,1.27,26.87,11.06,4.02,5.4,11.15,17.75,2.18,21.55-5.3,2.25-10.56,1.14-14.94-2.03l-7.58-5.48c-9.71-7.02-19.31.44-28.15.02Z"/>
  <path d="M327.3,58.74c.38.61,8.55,14.05,4.5,11.31-.31-.21-1.31-.82-1.57-1.1l-5.89-6.18c-.24-.25-.61,1.61-.36,1.86l9.54,9.73c4.95,5.05,3.26,8.52,2.56,7.76l-1.25-1.37-9.57-10.2c-2.43-2.59-5.06-5.49-6.71-8.5l-2.83-5.15-2.68,2.04c-2.22-2.83-3.95-5.2-5.95-7.43l-9.27-10.36c-7.55-8.44-12.28-9.96-16.42-17.87l4.8-1.59c.33-.11-.95-1.2-1.12-1.53-.5-1.03-1.14-2.36-.84-1.75l7.11-1.15c2.25-.36,5.54.15,7.41,1.55l6.27,4.66.88-3.08c1.72,1.13,3.78,2.39,4.77,3.32l8.09,7.62,5.13,5.6c.33.36,1.59-1.11,1.24-1.49l-7.16-7.7c-2.48-2.66-4.53-4.83-7.12-7.26,0,0-7.45-5.63-3.8-5.24l6.09.65c1.26.14,4.25,1.45,5.31,2.24l7.58,5.67c1.71,1.28-.23-3.77-4.37-6.01l-5.2-2.82c-.36-.2-1.69-1.18-1.36-1.39l5.82-3.59,2.13,3.75c.6,1.05,3.03,2.9,4.24,3.16l4.67.99c7.01,1.49,10.5,6.7,18.81,12.9,2.2,1.64,4.83,3.47,6.7,5.3l11.9,11.71c.75.74,2.42,3.05,2.3,4.07-.1.88-1.96,2.73-2.16,2.94l9.42,9.97c.45.47-.23,3.32-.75,2.74l-12.11-13.7-7.02-8.56c-.39-.48-1.72,1.18-1.26,1.62,10.85,10.35,8.61,16.79,6.94,13.86l-3.22-5.67c-.17-.3-1.82.08-1.66.4l1.95,3.84c.14.28-.51,1.7-.61,1.59s-.79-.68-1.05-.98l-6.33-7.17-5.61-6.36c-.32-.37-1.93.95-1.61,1.27l4.35,4.33c.36.36-1.64,2.21-2.01,1.85l-4.38-4.19-1.88,2.63-13.89-12.36c-.51-.46-2.26.83-1.74,1.2,3.18,2.29,17.28,12.73,11.2,14.79l10.09,10.12c.21.21-.56,2.37-.78,2.19l-3.04-2.59-8.92-7.61c-3.84-3.27-7.18-7.12-10.5-11.38l-3.89,2.41,6.08,9.68Z"/>
  <path d="M214.64,219.85l-1.4-7.34c-1.55-8.12-9.37-15.34-16.42-18.63-12.33-5.75-29.26-3.55-38.18,8.53-4,5.42,3.12,17.45-1.66,12.5-4.46-4.61.34-7.62-3.29-7.77l-7-.28c-5.67-.23-1.92.89-11.57,3.8l-9.56,2.88c-1.07.32-3.96.37-4.82-.31l-5.74-4.56,2.92-3.38c1.55-1.8,5.59-.47,7.37-2.44,7.58-8.38,4.03-8.7,11.64-14.79,10.65-8.51,5.78-12.67,14.4-9.47l1.2-4.25c.22-.77,2.63-2.28,3.43-2.14l9.31,1.62c.02.05-.31-1.36-.42-1.78-.2-.71,1.82-1.86,2.5-1.58,1.1.45,3.66,1.33,4.9,1.34,20.49.16,27.32,3.16,41.89,17.76,2.18,2.18,3.99,5.56,5.72,8.69,5.3,9.55,3.9,20.01,1.72,14.71-4.87-11.82-8.44-21.89-20.13-28.15-32.05-17.18-56.36,8.42-47.44,5.42l4.81-1.62c2.87-.97,5.92-1.61,8.94-2.2l7.47-1.46c12.34-2.41,17.19.51,27.88,5.65,3.72,1.79.07,5.98,1.33,6.13l4.81.55c.87.1,2.52,1.88,2.99,2.81l6.32,12.52c1.26,2.5,4.53,8.08.61,9.79-.7.3-3.19.92-3.56.33-.24-.39-.84-2.2-.97-2.88Z"/>
  <path d="M74.53,299.99c-.14,1.87-2.84,3.77-4.55,3.75-9.67-.08-11.33,5.83-15.09,3.58-2.86-1.71-6.27-5.28-7.39-8.37-4.51-12.46-4.03-26.1,1.49-38.15,2.81-6.13,10.41-5.45,9.18-7.2l-2.23-3.17c-.99-1.41-1.57-5.24-.75-6.89l3.11-6.22c.28-.56,3.06-1.64,3.32-1.04l4.31,10.22c.72,1.71.3,4.6-.29,6.64l-4.35-1.74c-.24-.1-.64,1.23-.51,1.43.23.38,1.73,1.82,2.19,1.72l7-1.56c2.3-.51,5.65.56,6.71,2.97,4.31,9.82-.13,16.86-1.23,31.6l-.93,12.42Z"/>
  <path d="M434.92,349.78c1.99,3.01,2.37,8.87.73,11.95l-4.13,7.71c-.81,1.51-4.49,3.5-6.17,3.37l-6.43-.47c-2.12-.16-6.49.39-8.49.81-5.31,1.12-.53-7.23.51-8.97,5.36-8.95,2.67-12.82,5.67-17.03l5.74-8.06c2.63-3.7,8.05-3.2,14.48-7.11l9.74-5.92c13.13-7.98,23.02-3.19,22.22,1.43l-.91,5.31-2.6,13.04c-.47,2.37-1.81,5.8-3.47,7.64l-7.86,8.69c-.47.52-2.99.49-3.1-.11l-1.26-6.78-1.21-6.43c-.28-1.5-3.29-3.89-4.85-3.98l-10.64-.62c-.28-.02-.73,1.34-.58,1.56l2.63,3.98Z"/>
  <path d="M320.45,81.6c-1.6.08-2.9-.08-3.51-.6l-6.97-5.96c-4.84-4.14-8.19-9.25-7.97-7.5l.44,3.5c.08.63-2.69-.3-3.37-.85-5.65-4.52-12.43-11.06-17.57-17.02l-9.6-11.14c-.43-.5-2.1,1.07-1.71,1.51l5.9,6.59,3.27,3.65c-3.66,2.42-2.53,8.77-4.43,6.65-.87-.97-2.36-2.65-2.87-3.38l-7.11-10.24c-.45-.64-.18-3.3.37-2.91l3.18,2.21-.7-1.35-5.71-11.57c-.19-.38.5-2.67.85-2.42l1.64,1.18,1.56,1.12c.33.24.51-1.66.19-1.91l-5.93-4.8c-.27-.22.45-2.03.74-1.83,1.94,1.33,6.08,4.09,8.07,5.69l4.99,4.02c.27.22,2.26-.71,1.96-.99l-8.03-7.39c-.25-.23.64-2.14.9-1.98l4.21,2.67c6.69,4.25,7.61,2.24,12.82,6.52,4.85,3.98,8.77,8.12,12.45,13.19l5.53,7.62c.26.35-1.35,1.9-1.6,1.58l-4.9-6.41c-2.46-3.22-2,5.1,6.68,10.72,2.29,1.49,4.59,3.38,5.94,5.21l3.79,5.14c.24.32-1.15,2.27-1.4,1.98l-6.41-7.41c-.3-.34-1.24-.98-1.58-1.23s-.83,1.99-.53,2.29l4.87,4.76,11.57,11.14Z"/>
  <path d="M250.02,213.52c-.24,6.55-3.53,12.21-10.12,14.6-1.13.41-4.24-.91-4.6-1.96-8.09-23.61-1.46-25.96-10.32-44.39l-5.11-4.9-.09-2.65,4.94,1.77c6.15,1.62,11.59,4.22,16.71,8.34,1.4,1.12,2.75,3.71,3.5,5.36l3.33,7.27c.99,2.17,2.18,5.5,2.1,7.66l-.33,8.91Z"/>
  <path d="M319.06,426.02l-9.69-1.3c-1.29-.17-4.17-1.76-4.49-2.96l-1.3-4.86c-.21-.79,1.58-2.69,2.34-2.94l6.18-1.99c2.68-.86,7.16-4.63,8.87-6.81.39-.51-.53-2.64-.47-3.28.06-.74,2.66-3.08,3.29-2.68l2.13,1.37,1.91.03-3.19-1.96c2.48-4.22,10.26-1.31,12.41.41l6.93,5.54-3.97,6.06c-1.28,1.95-.22,6.01,1.07,8.37l-2.71,2.25c-1.08.9-3.46-4.87-5.07-2.47-.77,1.15-2.57,3.61-3.52,4.94l-3-2.76-3.01,3.41c-.67.76-3.63,1.77-4.71,1.63Z"/>
  <path d="M45.51,315.33l-2.95-5.79c-1-1.95-1.89-4.52-2.47-6.76l-1.75-6.74-2.49-8.57-3.29-11.01c-1.14-3.81-2.2-8.5-1.46-12.49l1.59-8.56c.2-1.07,2.69-2.62,3.81-2.8,7.16-1.2.66-7.89,11.77-10.04l-1.22-3.95,3.21-.13c7.5,10.17-1.83,9.8-5.52,20.92-4.54,13.71-5.2,29.56,1.03,42.87,1.28,2.73,4.21,5.38,6.58,7.06l5.05,3.57c1.29.91,1.33,5,.27,6.29-1.59,1.94-5.36,3-7.21,1.74-2.04-1.38-3.99-3.71-4.96-5.6Z"/>
  <path d="M270.83,164.57c-1.89-.12-3.97-.45-5.87-1.09-2.39-1.48-4.71-2.05-7.3-2.33l-4.59-.5-2.94-4.36-3.38,2.99c-6.28-7.92-13.63-10.32-15.57-16.94l-.04-4.11-3.76.6c-2.86-3.14-.85-6.67.01-9.31l3.91,2.39c6.5,3.98,8.76,2.12,12.98,6.01l6.05,5.58c2.78,2.56,6.81,4.43,10.55,5.56l6.49,1.97c1.16.35,3.33,2.75,3.69,3.98l1.9,6.43-3.79.65,1.63,2.49Z"/>
  <path d="M199.21,235.78c5.65-.28-5.04,14.18-50.29,2.77l-8.48-2.14c-1.34-.34-3.79-3.05-3.61-4.36l.69-5.17c.33-2.48,3.39,3.12,3.32,2.14,4.97-5.2,4.48-3.62,10.89-2.7l.88-4.33c.09-.43,1.91-.25,2.35.03l8.83,5.48c.42.26,1.39,1.28,1.67,1.56s-1.23,1.71-1.56,1.49l-9.24-5.77c-1.93-1.21-3.87,5.23,16.44,10.76,4.73,1.29,9.43,1.17,14.48.92l13.63-.67Z"/>
  <path d="M374.76,250.14c-7.26-16.47-23.72-24.32-40.57-20.45-6.41,1.47-13.51,7.12-16.7,13.14l-2.13,4.02c-.31.59-2.67-.26-3.03-.82-2.77-4.25,1.46-7.75,4.54-9.94l9.17-6.52c7.54-5.36,21.94-7.67,31.16-4.62,8.27,2.73,12.59,6.63,18.76,12.27,4.23,3.87,5.3,16.54,2.79,21.5-1.62,3.21-2.8-5.89-3.99-8.58Z"/>
  <path d="M375.91,287.19c.72.35-1.05,3.25-1.76,3.09l-16.44-3.83c-6.13-1.43-20.7-7.91-26.28-11.12-14.25-8.19-25.29-24.73-20.16-21.35,3.63,2.39,9.78,6.42,13.72,8.66l10.56,6.01,13.71,7.21c9.15,4.81,13.71,5.02,26.66,11.33Z"/>
  <path d="M406.27,434.93c-1.51,10.84-17.87,2.04-22.16-.6-3.72-2.29-10.03-9.66-7.34-13.58.75-1.1,5.09-8.17,7.84-4.75l3.59,4.46c2.26,2.81,5.72,5.45,9.01,6.74l5.97,2.33c1.31.51,3.29,3.84,3.08,5.38Z"/>
  <path d="M76.76,337.73c1.67,7.55-13.28,9.55-20.23,7.11-.69-.24-1.79-2.67-1.38-3.27.78-1.14,2.53-3.55,3.46-4.51l8.66-8.85,4.76-4.56c.34-.32,1.82.98,1.96,1.58l2.77,12.51Z"/>
  <path d="M464.24,291.84l-4.36-2.08-1.55,12.69c-.09.74-1.66,2.04-2.17,1.53s-1.64-2.76-1.46-3.57l3.61-16.34,2.04-9.08c.11-.5.25-1.47.43-1.24l1.73,2.25c.21.27,1.85-.88,1.77-1.19l-1.21-4.43-2.45-9.48,3.28.25c.58.04.3-1.71.06-2.42l-2.83-8.32,5.6-.87.95,5.51c.96,5.53-4.85,7.85-3.12,11.55l2.56,5.48c5.49,11.74-1.86,26.06-1.21,17.49l.83-10.82c.02-.25-1.67-1.02-1.73-.79-.12.52-.47,2.36-.49,3.11l-.28,10.77Z"/>
  <path d="M382.41,235.96c-10.19-17.73-40.27-23.15-56.87-10.69-4.23,3.18-10.17,8.66-13.54,11.97s-1.86-6,8.15-12.11l9.76-5.95c2.49-1.52,6.54-2.89,9.61-3.42,13.16-2.25,25.67.78,36.55,8.16,3.52,2.39,6.2,5.8,7.93,9.77l3.53,8.15c.14.32-1.31.74-1.49.43l-3.63-6.32Z"/>
  <path d="M378.53,45.82l-1.14,2.7-14.24-11.47-8.42-6.71-9.99-7.58-8.06-6.12-4.59-3.46,1.95-2.49c9.83,4.04,5.48,3.85,15.28,10.74,2.37,1.67,4.7,3.3,6.81,5.08l12.45,10.48,9.95,8.82Z"/>
  <path d="M186.34,129.22l2.54,6.48-6.16.63c-4.48.43-6.85-.12-9.55-4.6-1.87-3.1,5.84-7.68,8.2-7.83,1.17-.08,15.92-1.77,13.26,2.78l-2.05,3.51-6.24-.97Z"/>
  <path d="M161.91,151.94c.43-.15,1.64-1.25,1.23-1.43l-2.34-1.05c-1.14-.51-3.86,1.16-4.74,2.21l-1.27,1.52c-.37.44-1.75-1.19-1.39-1.55l3.24-3.24-2.82-2,3.12-2.08c-.15.1,5.47,3.11,15.29-8.29l5.27,5.33c.67.67-.17,4.02-1.18,3.99-1.76-.05-5.54.75-6.64,2.01l-5.77,6.59c-.48.55-1.89-.3-3.68-1.43l1.67-.57Z"/>
  <path d="M72.54,242.86l.14,4.37c.01.42-2.21.8-2.5.5-10.31-10.07-3.24-26.88-.55-23.07,1.1,1.56,3.67,5.48,3.96,7.35l1.47,9.57c.08.51-.26,2.59-.37,3.28l-2.14-2.01Z"/>
  <path d="M231.76,251.52c-2.82,5.35-8.49,5.47-12.26,2.3,3.19-5.45,6.87-9.46,13.77-9.35-.27,2.6-.57,5.27-1.51,7.05Z"/>
  <path d="M197.73,117.4c-.99-.84-4.38-1.43-6.79-1.2l-5.51,2.05c-.4.15-1.87.12-3.05.16l-1.14-6.05,3.21.25c8.01.62.6-.78,10.11-1.28l6.11-.32,1.41,2.23-.53,3.06-3.82,1.11Z"/>
  <path d="M255.89,63.65c1.64,1.3,2.86,5.87,2.58,7.77-.07.47-1.68,1.5-2.08,1.25-.61-.37-1.83-1.54-1.96-2.27l-1-5.56c-.08-.46-2.01.25-2.45.41l-3.95,1.45c-.88.32-2.87-1.57-3.2-2.45-.39-1.06-.32-3.49.31-4.41l1.31-1.91c.42-.61,3.74.2,3.3.78l-2.47,3.23c-.32.42,1.06,1.92,1.3,1.51l2.57-4.38,5.73,4.57Z"/>
  <path d="M455.01,246.11l-6.22,10.01c-2.36-2.41-4.29-5.2-5.24-8.03-.44-1.31,1.9-4.63,3.27-4.61l6.5.1,1.69,2.54Z"/>
  <path d="M350.12,78.4l-.83,2.37c-3.54-4.59-6.16-8.26-10.04-12.44l-11.71-12.61c-.47-.51-.43-3.22-.23-2.94l13.79,12.99c3.61,3.4,6.2,7.78,9.01,12.62Z"/>
  <path d="M453.04,297.74c-1.44,7.96-7.2,9.69-5.61,7.42,1.98-2.83,3.95-8.24,4.13-12.19.56-12.65,4.75-13.31,4.3-10.83l-2.82,15.6Z"/>
  <path d="M239.93,63.03c-.64,1.86-4.68.17-4.83-1.53,2.88-4.55.67-9.53,2.92-7.54,1.55,1.37,3.1,5.61,1.91,9.07Z"/>
  <path d="M365.26,260.93c.31-1.76.41-3.41.32-4.96-.31-5.43-2.94-9.65-6.84-13.48-.93-.91-1.92-1.8-2.99-2.68-3.25-2.68-6.83-3.87-10.43-3.91-3.96-.04-7.94,1.3-11.52,3.59-.65.42-1.29.86-1.91,1.34-2.8,2.14-5.28,4.86-7.21,7.91-.68,1.08-1.37,4.48-.95,5.65.05.15.14.3.25.47.23.33.57.7.96,1.06.98.91,2.3,1.79,3.07,2.09l2.63,1.01,10.53,4.04c1.52.58,4.29,1.43,7.43,2.06.94.19,1.92.36,2.9.49.66.09,1.32.17,1.98.22,1.64.14,3.27.17,4.77.03.6-.06,1.18-.14,1.73-.26.55-.12,1.07-.27,1.56-.45,1.95-.74,3.34-2.06,3.71-4.2ZM352.94,249.72c-.7-.08-2.28-.42-2.99-.71-.83-.34-.85-3.64-.05-4.06.6-.32,2.28-.51,2.94-.35.66.17,1.49,1.92,1.6,2.78.07.53-.98,2.39-1.51,2.33Z"/>
  <path d="M201.65,208.78l-5.7-7.02c-4.54-5.59-16.16-5.25-21.96-.8-4.46,3.42-11.52,10.68-10.92,16.61.12,1.19,2.43,3.31,3.57,4.27,11.67,3.45,20.32,5.78,33.96,4.54,5.88-4.44,3.86-14.13,1.05-17.6ZM195.49,211.42c-.64.62-3.32.45-3.68-.33-.36-.78-.03-2.63.55-3.56.58-.93,3.81-.9,4.41,0,.44.65-.48,3.12-1.28,3.89Z"/>
</svg>