<?xml version="1.0" encoding="UTF-8"?>
<svg id="Layer_1" data-name="Layer 1" xmlns="http://www.w3.org/2000/svg" viewBox="0 0 500 500">
  <path d="M426.73,450.73c7.51,5.63,10.58,15.44,7.61,24.35-2.97,8.91-11.31,14.92-20.7,14.92h-109.09c-7.36,0-14.22-3.71-18.25-9.87-4.03-6.16-4.69-13.93-1.74-20.68l39.99-91.64c4.43-10.15.55-22.01-9.01-27.58-9.57-5.57-21.79-3.1-28.44,5.76l-19.64,26.18c-4.12,5.49-10.59,8.73-17.45,8.73s-13.33-3.23-17.46-8.73l-19.64-26.18c-6.64-8.86-18.87-11.34-28.44-5.76s-13.44,17.43-9.01,27.58l39.99,91.64c2.94,6.74,2.29,14.52-1.74,20.68-4.03,6.16-10.9,9.87-18.25,9.87h-109.09c-9.39,0-17.73-6.01-20.7-14.92s.09-18.72,7.61-24.35l26.18-19.64c8.09-6.07,10.95-16.91,6.91-26.18l-39.99-91.64c-2.66-6.1-2.39-13.07.72-18.95s8.74-10.01,15.28-11.23l62.53-11.65c10.33-1.92,17.82-10.94,17.82-21.45s-7.49-19.52-17.82-21.45l-62.53-11.65c-10.33-1.92-17.82-10.94-17.82-21.45V31.82c0-12.05,9.77-21.82,21.82-21.82h54.54c9.39,0,17.73,6.01,20.7,14.92,2.97,8.91-.09,18.72-7.61,24.35l-26.18,19.64c-5.49,4.12-8.73,10.59-8.73,17.46v54.55c0,12.05,9.77,21.82,21.82,21.82h54.55c10.51,0,19.52-7.49,21.45-17.82l11.65-62.53c1.92-10.33,10.94-17.82,21.45-17.82s19.53,7.49,21.45,17.82l11.65,62.53c1.92,10.33,10.94,17.82,21.45,17.82h54.55c12.05,0,21.82-9.77,21.82-21.82v-54.55c0-6.87-3.23-13.33-8.73-17.46l-26.18-19.64c-7.51-5.63-10.58-15.45-7.61-24.35,2.97-8.91,11.31-14.92,20.7-14.92h54.55c12.05,0,21.82,9.77,21.82,21.82v163.64c0,10.51-7.49,19.52-17.82,21.45l-62.53,11.65c-10.33,1.92-17.82,10.94-17.82,21.45s7.49,19.52,17.82,21.45l62.53,11.65c6.54,1.22,12.16,5.35,15.28,11.23,3.12,5.88,3.38,12.85.72,18.95l-39.99,91.64c-4.05,9.27-1.19,20.11,6.91,26.18l26.18,19.64h0Z"/>
</svg>